# Blender v2.63 (sub 0) OBJ File: 'shipbackup.blend'
# www.blender.org
mtllib cockpit.mtl
o Cylinder.000_Cylinder.001
v 0.000000 -0.000000 -0.648000
v 0.247979 -0.000000 -0.598674
v 0.458205 -0.000000 -0.458205
v 0.648000 -0.000000 0.000000
v 0.598674 -0.000000 0.247979
v 0.458205 -0.000000 0.458205
v 0.000000 -0.000000 0.648000
v -0.598674 -0.000000 0.247979
v -0.458205 -0.000000 -0.458205
v -0.247979 -0.000000 -0.598674
v 0.000000 0.000003 0.000000
v 0.598674 -0.000000 -0.247979
v 0.247979 -0.000000 0.598674
v -0.247979 -0.000000 0.598674
v -0.458205 -0.000000 0.458206
v -0.648000 -0.000000 0.000000
v -0.598674 -0.000000 -0.247979
v 0.000000 0.714132 -0.505440
v 0.193424 0.714132 -0.466966
v 0.357400 0.714132 -0.357400
v 0.505440 0.914649 0.000000
v 0.466966 0.875537 0.193424
v 0.357400 0.714132 0.357400
v 0.000000 0.714132 0.505440
v -0.466966 0.714132 0.193424
v -0.357400 0.714132 -0.357400
v -0.193423 0.714132 -0.466966
v 0.000000 1.294638 -0.343699
v 0.466966 0.875537 -0.193423
v 0.193424 0.714132 0.466966
v -0.193423 0.714132 0.466966
v -0.357400 0.714132 0.357400
v -0.505440 0.714132 0.000000
v -0.466966 0.714132 -0.193424
v 0.000000 0.832484 -0.429624
v 0.164410 0.832484 -0.396921
v 0.303790 0.832484 -0.303790
v 0.429624 1.033001 0.000000
v 0.396921 0.993890 0.164410
v 0.303790 0.832484 0.303790
v 0.000000 0.832484 0.429624
v -0.396921 0.832484 0.164410
v -0.303790 0.832484 -0.303790
v -0.164410 0.832484 -0.396921
v 0.000000 1.341451 -0.309329
v 0.396921 0.993890 -0.164410
v 0.164410 0.832484 0.396921
v -0.164410 0.832484 0.396921
v -0.303790 0.832484 0.303790
v -0.429624 0.832484 0.000000
v -0.396921 0.832484 -0.164410
v 0.131528 1.294638 -0.317537
v 0.243032 1.294638 -0.243032
v 0.343699 1.294638 0.000000
v 0.317537 1.294638 0.131528
v 0.243032 1.294638 0.243032
v 0.000000 1.294638 0.343699
v -0.317537 1.294638 0.131528
v -0.243032 1.294638 -0.243032
v -0.131528 1.294638 -0.317537
v 0.000000 1.584404 -0.163944
v 0.317537 1.294638 -0.131528
v 0.131528 1.294638 0.317537
v -0.131528 1.294638 0.317537
v -0.243032 1.294638 0.243032
v -0.343699 1.294638 0.000000
v -0.317537 1.294638 -0.131528
v 0.118375 1.341451 -0.285783
v 0.218729 1.341451 -0.218729
v 0.309329 1.341451 0.000000
v 0.285783 1.341451 0.118375
v 0.218729 1.341451 0.218729
v 0.000000 1.341451 0.309329
v -0.285783 1.341451 0.118375
v -0.218729 1.341451 -0.218729
v -0.118375 1.341451 -0.285783
v 0.285783 1.341451 -0.118375
v 0.118375 1.341451 0.285783
v -0.118375 1.341451 0.285783
v -0.218729 1.341451 0.218729
v -0.309329 1.341451 0.000000
v -0.285783 1.341451 -0.118375
v 0.062739 1.584404 -0.151465
v 0.115926 1.584404 -0.115926
v 0.163945 1.584404 0.000000
v 0.151465 1.584404 0.062739
v 0.115926 1.584404 0.115926
v 0.000000 1.584404 0.163945
v -0.151465 1.584404 0.062739
v -0.115926 1.584404 -0.115926
v -0.062739 1.584404 -0.151465
v 0.000000 1.667070 0.000000
v 0.151465 1.584404 -0.062739
v 0.062739 1.584404 0.151465
v -0.062739 1.584404 0.151465
v -0.115926 1.584404 0.115927
v -0.163945 1.584404 0.000000
v -0.151465 1.584404 -0.062739
v 0.447424 0.873536 0.191292
v 0.365907 0.753450 0.313290
v 0.395310 0.961590 0.169706
v 0.326021 0.841504 0.273405
v 0.365907 0.753450 -0.313290
v 0.447424 0.873536 -0.191292
v 0.326021 0.841504 -0.273404
v 0.395310 0.961590 -0.169706
v 0.488784 0.921283 -0.016639
v 0.460159 0.892184 -0.160546
v 0.432377 1.009337 -0.016639
v 0.408046 0.980238 -0.138960
v 0.488784 0.921283 0.016639
v 0.460159 0.892184 0.160547
v 0.432377 1.009337 0.016639
v 0.408046 0.980238 0.138961
v 0.247979 -0.000000 -0.598674
v 0.000000 -0.000000 -0.648000
v 0.458205 -0.000000 -0.458205
v 0.598674 -0.000000 0.247979
v 0.648000 -0.000000 0.000000
v 0.458205 -0.000000 0.458205
v -0.247979 -0.000000 -0.598674
v -0.458205 -0.000000 -0.458205
v -0.458205 -0.000000 0.458206
v -0.247979 -0.000000 0.598674
v -0.598674 -0.000000 -0.247979
v -0.648000 -0.000000 0.000000
v 0.598674 -0.000000 -0.247979
v 0.247979 -0.000000 0.598674
v 0.000000 -0.000000 0.648000
v -0.598674 -0.000000 0.247979
v 0.193424 0.714132 -0.466966
v 0.000000 0.714132 -0.505440
v 0.357400 0.714132 -0.357400
v 0.466966 0.875537 0.193424
v 0.505440 0.914649 0.000000
v 0.357400 0.714132 0.357400
v -0.193423 0.714132 -0.466966
v -0.357400 0.714132 -0.357400
v -0.357400 0.714132 0.357400
v -0.193423 0.714132 0.466966
v -0.466966 0.714132 -0.193424
v -0.505440 0.714132 0.000000
v 0.466966 0.875537 -0.193423
v 0.193424 0.714132 0.466966
v 0.000000 0.714132 0.505440
v -0.466966 0.714132 0.193424
v 0.164410 0.832484 -0.396921
v 0.000000 0.832484 -0.429624
v 0.303790 0.832484 -0.303790
v 0.396921 0.993890 0.164410
v 0.429624 1.033001 0.000000
v 0.303790 0.832484 0.303790
v -0.164410 0.832484 -0.396921
v -0.303790 0.832484 -0.303790
v -0.303790 0.832484 0.303790
v -0.164410 0.832484 0.396921
v -0.396921 0.832484 -0.164410
v -0.429624 0.832484 0.000000
v 0.396921 0.993890 -0.164410
v 0.164410 0.832484 0.396921
v 0.000000 0.832484 0.429624
v -0.396921 0.832484 0.164410
v 0.131528 1.294638 -0.317537
v 0.000000 1.294638 -0.343699
v 0.243032 1.294638 -0.243032
v 0.317537 1.294638 0.131528
v 0.343699 1.294638 0.000000
v 0.243032 1.294638 0.243032
v -0.131528 1.294638 -0.317537
v -0.243032 1.294638 -0.243032
v -0.243032 1.294638 0.243032
v -0.131528 1.294638 0.317537
v -0.317537 1.294638 -0.131528
v -0.343699 1.294638 0.000000
v 0.317537 1.294638 -0.131528
v 0.131528 1.294638 0.317537
v 0.000000 1.294638 0.343699
v -0.317537 1.294638 0.131528
v 0.118375 1.341451 -0.285783
v 0.000000 1.341451 -0.309329
v 0.218729 1.341451 -0.218729
v 0.285783 1.341451 0.118375
v 0.309329 1.341451 0.000000
v 0.218729 1.341451 0.218729
v -0.118375 1.341451 -0.285783
v -0.218729 1.341451 -0.218729
v -0.218729 1.341451 0.218729
v -0.118375 1.341451 0.285783
v -0.285783 1.341451 -0.118375
v -0.309329 1.341451 0.000000
v 0.285783 1.341451 -0.118375
v 0.118375 1.341451 0.285783
v 0.000000 1.341451 0.309329
v -0.285783 1.341451 0.118375
v 0.365907 0.753450 0.313290
v 0.447424 0.873536 0.191292
v 0.395310 0.961590 0.169706
v 0.326021 0.841504 0.273405
v 0.395310 0.961590 -0.169706
v 0.447424 0.873536 -0.191292
v 0.365907 0.753450 -0.313290
v 0.326021 0.841504 -0.273404
v 0.432377 1.009337 -0.016639
v 0.488784 0.921283 -0.016639
v 0.408046 0.980238 -0.138960
v 0.460159 0.892184 -0.160546
v 0.460159 0.892184 0.160547
v 0.488784 0.921283 0.016639
v 0.408046 0.980238 0.138961
v 0.432377 1.009337 0.016639
vn 0.000000 -0.999969 0.000000
vn 0.000000 -1.000000 0.000000
vn -0.595386 0.539384 0.595386
vn -0.322214 0.539384 0.777947
vn 0.000000 0.539384 0.842036
vn 0.214972 0.708060 0.672597
vn 0.753410 0.224677 0.617908
vn 0.581927 0.483016 0.654225
vn 0.440535 0.578448 0.686514
vn 0.322214 0.539384 0.777947
vn 0.244972 0.652760 0.716819
vn 0.738029 0.674734 0.000000
vn 0.657826 0.634693 0.405438
vn 0.716117 0.671163 0.191565
vn 0.440535 0.578448 -0.686514
vn 0.322214 0.539384 -0.777947
vn 0.581927 0.483016 -0.654225
vn 0.900266 0.395795 -0.181188
vn 0.716117 0.671163 -0.191565
vn 0.244972 0.652760 -0.716819
vn 0.803034 0.364483 -0.471450
vn -0.595386 0.539384 -0.595386
vn -0.777917 0.539384 -0.322214
vn 0.000000 0.539384 -0.842036
vn -0.143864 0.487259 -0.861293
vn 0.381878 0.130955 -0.914853
vn -0.842036 0.539384 0.000000
vn -0.777917 0.539384 0.322214
vn -0.322214 0.539384 -0.777947
vn 0.000000 0.195746 -0.980621
vn -0.375256 0.195746 -0.906003
vn -0.980621 0.195746 0.000000
vn -0.906003 0.195746 0.375256
vn 0.895840 0.167577 -0.411542
vn 0.672872 0.184942 -0.716239
vn 0.693350 0.183203 -0.696890
vn 0.923521 0.164129 -0.346568
vn 0.375256 0.195746 -0.906003
vn -0.693411 0.195746 -0.693411
vn -0.906003 0.195746 -0.375256
vn 0.987457 0.157689 0.000000
vn 0.375256 0.195746 0.906003
vn 0.672872 0.184942 0.716239
vn 0.693350 0.183203 0.696890
vn 0.895840 0.167577 0.411542
vn 0.923521 0.164129 0.346568
vn 0.000000 0.195746 0.980621
vn -0.375256 0.195746 0.906003
vn -0.693411 0.195746 0.693411
vn 0.000000 0.182775 -0.983123
vn -0.376232 0.182775 -0.908292
vn -0.908292 0.182775 -0.376232
vn -0.983123 0.182775 0.000000
vn -0.908292 0.182775 0.376232
vn -0.695181 0.182775 0.695181
vn -0.695181 0.182775 -0.695181
vn -0.376232 0.182775 0.908292
vn 0.000000 0.182775 0.983123
vn 0.618061 0.192785 0.762108
vn 0.832331 0.246895 0.496170
vn 0.860073 0.257424 0.440413
vn 0.650685 0.198675 0.732841
vn 0.376232 0.182775 0.908292
vn 0.955687 0.294290 0.000000
vn 0.618061 0.192785 -0.762108
vn 0.376232 0.182775 -0.908292
vn 0.650685 0.198675 -0.732841
vn 0.832331 0.246895 -0.496170
vn 0.860073 0.257424 -0.440413
vn -0.569964 0.591784 0.569964
vn -0.308451 0.591784 0.744713
vn 0.000000 0.591784 0.806055
vn 0.569964 0.591784 0.569964
vn 0.744713 0.591784 0.308451
vn 0.308451 0.591784 0.744713
vn 0.806055 0.591784 0.000000
vn 0.569964 0.591784 -0.569964
vn 0.308451 0.591784 -0.744713
vn 0.744713 0.591784 -0.308451
vn -0.569964 0.591784 -0.569964
vn -0.744713 0.591784 -0.308451
vn 0.000000 0.591784 -0.806055
vn -0.806055 0.591784 0.000000
vn -0.744713 0.591784 0.308451
vn -0.308451 0.591784 -0.744713
vn 0.000000 0.513474 0.858089
vn 0.328349 0.513474 0.792749
vn 0.267434 0.715232 0.645680
vn 0.000000 0.715232 0.698874
vn 0.792749 0.513474 0.328349
vn 0.858089 0.513474 0.000000
vn 0.698874 0.715232 0.000000
vn 0.645680 0.715232 0.267434
vn 0.606739 0.513474 0.606739
vn 0.494186 0.715232 0.494186
vn 0.606739 0.513474 -0.606739
vn 0.328349 0.513474 -0.792749
vn 0.267434 0.715232 -0.645680
vn 0.494186 0.715232 -0.494186
vn 0.792749 0.513474 -0.328349
vn 0.645680 0.715232 -0.267434
vn -0.606739 0.513474 -0.606739
vn -0.792749 0.513474 -0.328349
vn -0.645680 0.715232 -0.267434
vn -0.494186 0.715232 -0.494186
vn 0.000000 0.513474 -0.858089
vn 0.000000 0.715232 -0.698874
vn -0.858089 0.513474 0.000000
vn -0.792749 0.513474 0.328349
vn -0.645680 0.715232 0.267434
vn -0.698874 0.715232 0.000000
vn -0.328349 0.513474 -0.792749
vn -0.267434 0.715232 -0.645680
vn -0.606739 0.513474 0.606739
vn -0.494186 0.715232 0.494186
vn -0.328349 0.513474 0.792749
vn -0.267434 0.715232 0.645680
vn 0.000000 1.000000 0.000000
vn 0.400372 0.481338 0.779717
vn -0.143864 0.487259 0.861293
vn 0.381878 0.130955 0.914853
vn 0.803034 0.364483 0.471450
vn 0.400372 0.481338 -0.779717
vn 0.753410 0.224677 -0.617908
vn 0.214972 0.708060 -0.672597
vn 0.803003 0.528550 -0.275246
vn 0.912229 0.409589 0.000000
vn 0.657826 0.634693 -0.405438
vn 0.834437 0.378613 -0.400403
vn 0.803003 0.528550 0.275246
vn 0.900266 0.395795 0.181188
vn 0.834437 0.378613 0.400403
usemtl Material.003
s 1
f 11//1 2//2 3//2
f 11//1 4//2 5//2
f 11//1 1//2 2//2
f 11//1 5//2 6//2
f 11//1 9//2 10//2
f 10//2 1//2 11//1
f 11//1 13//2 7//2
f 11//1 7//2 14//2
f 11//1 14//2 15//2
f 11//1 15//2 8//2
f 11//1 8//2 16//2
f 11//1 3//2 12//2
f 11//1 12//2 4//2
f 11//1 6//2 13//2
f 11//1 16//2 17//2
f 11//1 17//2 9//2
f 32//3 31//4 48//4
f 32//3 48//4 49//3
f 31//4 24//5 41//5
f 31//4 41//5 48//4
f 195//6 102//7 40//8
f 195//6 40//8 136//9
f 24//5 30//10 47//10
f 24//5 47//10 41//5
f 22//11 21//12 111//13
f 22//11 111//13 112//14
f 30//10 136//9 40//8
f 30//10 40//8 47//10
f 20//15 19//16 36//16
f 20//15 36//16 37//17
f 110//18 108//19 29//20
f 110//18 29//20 46//21
f 26//22 34//23 51//23
f 26//22 51//23 43//22
f 19//16 18//24 35//24
f 19//16 35//24 36//16
f 46//21 29//20 104//25
f 46//21 104//25 106//26
f 33//27 25//28 42//28
f 33//27 42//28 50//27
f 18//24 27//29 44//29
f 18//24 44//29 35//24
f 34//23 33//27 50//27
f 34//23 50//27 51//23
f 25//28 32//3 49//3
f 25//28 49//3 42//28
f 27//29 26//22 43//22
f 27//29 43//22 44//29
f 116//30 121//31 137//31
f 116//30 137//31 132//30
f 126//32 130//33 146//33
f 126//32 146//33 142//32
f 127//34 117//35 133//36
f 127//34 133//36 143//37
f 115//38 116//30 132//30
f 115//38 132//30 131//38
f 122//39 125//40 141//40
f 122//39 141//40 138//39
f 119//41 127//34 143//37
f 119//41 143//37 135//41
f 117//35 115//38 131//38
f 117//35 131//38 133//36
f 128//42 120//43 23//44
f 128//42 23//44 144//42
f 118//45 119//41 135//41
f 118//45 135//41 134//46
f 129//47 128//42 144//42
f 129//47 144//42 145//47
f 120//43 118//45 134//46
f 120//43 134//46 23//44
f 124//48 129//47 145//47
f 124//48 145//47 140//48
f 123//49 124//48 140//48
f 123//49 140//48 139//49
f 121//31 122//39 138//39
f 121//31 138//39 137//31
f 130//33 123//49 139//49
f 130//33 139//49 146//33
f 125//40 126//32 142//32
f 125//40 142//32 141//40
f 148//50 153//51 60//51
f 148//50 60//51 28//50
f 157//52 158//53 66//53
f 157//52 66//53 67//52
f 162//54 155//55 65//55
f 162//54 65//55 58//54
f 153//51 154//56 59//56
f 153//51 59//56 60//51
f 155//55 156//57 64//57
f 155//55 64//57 65//55
f 156//57 161//58 57//58
f 156//57 57//58 64//57
f 152//59 150//60 55//61
f 152//59 55//61 56//62
f 161//58 160//63 63//63
f 161//58 63//63 57//58
f 150//60 151//64 54//64
f 150//60 54//64 55//61
f 160//63 152//59 56//62
f 160//63 56//62 63//63
f 149//65 147//66 52//66
f 149//65 52//66 53//67
f 151//64 159//68 62//69
f 151//64 62//69 54//64
f 154//56 157//52 67//52
f 154//56 67//52 59//56
f 147//66 148//50 28//50
f 147//66 28//50 52//66
f 159//68 149//65 53//67
f 159//68 53//67 62//69
f 158//53 162//54 58//54
f 158//53 58//54 66//53
f 171//70 172//71 79//71
f 171//70 79//71 80//70
f 172//71 177//72 73//72
f 172//71 73//72 79//71
f 168//73 166//74 71//74
f 168//73 71//74 72//73
f 177//72 176//75 78//75
f 177//72 78//75 73//72
f 166//74 167//76 70//76
f 166//74 70//76 71//74
f 176//75 168//73 72//73
f 176//75 72//73 78//75
f 165//77 163//78 68//78
f 165//77 68//78 69//77
f 167//76 175//79 77//79
f 167//76 77//79 70//76
f 170//80 173//81 82//81
f 170//80 82//81 75//80
f 163//78 164//82 45//82
f 163//78 45//82 68//78
f 175//79 165//77 69//77
f 175//79 69//77 77//79
f 174//83 178//84 74//84
f 174//83 74//84 81//83
f 164//82 169//85 76//85
f 164//82 76//85 45//82
f 173//81 174//83 81//83
f 173//81 81//83 82//81
f 178//84 171//70 80//70
f 178//84 80//70 74//84
f 169//85 170//80 75//80
f 169//85 75//80 76//85
f 193//86 192//87 94//88
f 193//86 94//88 88//89
f 182//90 183//91 85//92
f 182//90 85//92 86//93
f 192//87 184//94 87//95
f 192//87 87//95 94//88
f 181//96 179//97 83//98
f 181//96 83//98 84//99
f 183//91 191//100 93//101
f 183//91 93//101 85//92
f 186//102 189//103 98//104
f 186//102 98//104 90//105
f 179//97 180//106 61//107
f 179//97 61//107 83//98
f 191//100 181//96 84//99
f 191//100 84//99 93//101
f 190//108 194//109 89//110
f 190//108 89//110 97//111
f 180//106 185//112 91//113
f 180//106 91//113 61//107
f 189//103 190//108 97//111
f 189//103 97//111 98//104
f 194//109 187//114 96//115
f 194//109 96//115 89//110
f 185//112 186//102 90//105
f 185//112 90//105 91//113
f 187//114 188//116 95//117
f 187//114 95//117 96//115
f 188//116 193//86 88//89
f 188//116 88//89 95//117
f 184//94 182//90 86//93
f 184//94 86//93 87//95
f 92//118 84//99 83//98
f 92//118 86//93 85//92
f 92//118 83//98 61//107
f 92//118 87//95 86//93
f 92//118 91//113 90//105
f 92//118 61//107 91//113
f 92//118 88//89 94//88
f 92//118 95//117 88//89
f 92//118 96//115 95//117
f 92//118 89//110 96//115
f 92//118 97//111 89//110
f 92//118 93//101 84//99
f 92//118 85//92 93//101
f 92//118 94//88 87//95
f 92//118 98//104 97//111
f 92//118 90//105 98//104
f 100//119 99//119 101//119
f 100//119 101//119 198//119
f 136//9 22//11 196//120
f 136//9 196//120 195//6
f 102//7 197//121 39//122
f 102//7 39//122 40//8
f 197//121 196//120 22//11
f 197//121 22//11 39//122
f 200//123 103//123 105//123
f 200//123 105//123 199//123
f 20//15 37//17 202//124
f 20//15 202//124 201//125
f 29//20 20//15 201//125
f 29//20 201//125 104//25
f 106//26 202//124 37//17
f 106//26 37//17 46//21
f 107//126 206//126 205//126
f 107//126 205//126 109//126
f 38//127 21//12 204//128
f 38//127 204//128 203//129
f 21//12 29//20 108//19
f 21//12 108//19 204//128
f 203//129 110//18 46//21
f 203//129 46//21 38//127
f 207//130 208//130 113//130
f 207//130 113//130 114//130
f 209//131 210//132 38//127
f 209//131 38//127 39//122
f 210//132 111//13 21//12
f 210//132 21//12 38//127
f 39//122 22//11 112//14
f 39//122 112//14 209//131
