# Blender v2.63 (sub 0) OBJ File: 'shipbackup.blend'
# www.blender.org
mtllib tank.mtl
o Cylinder.004_Cylinder.007
v 0.000000 -0.000000 -0.648000
v 0.247979 -0.000000 -0.598674
v 0.458205 -0.000000 -0.458205
v 0.648000 -0.000000 0.000000
v 0.598674 -0.000000 0.247979
v 0.458205 -0.000000 0.458205
v 0.000000 -0.000000 0.648000
v -0.598674 -0.000000 0.247979
v -0.458205 -0.000000 -0.458205
v -0.247979 -0.000000 -0.598674
v 0.000000 0.000003 0.000000
v 0.000000 -3.960001 0.000000
v 0.359375 -3.960001 -0.867608
v 0.664038 -3.960001 -0.664038
v 0.598674 -0.000000 -0.247979
v 0.939092 -3.960001 0.000000
v 0.867608 -3.960001 0.359375
v 0.359375 -3.960001 0.867608
v 0.247979 -0.000000 0.598674
v 0.000000 -3.960001 0.939092
v -0.359375 -3.960001 0.867608
v -0.247979 -0.000000 0.598674
v -0.664038 -3.960001 0.664039
v -0.458205 -0.000000 0.458206
v -0.867608 -3.960001 0.359375
v -0.939092 -3.960001 0.000000
v -0.648000 -0.000000 0.000000
v -0.598674 -0.000000 -0.247979
v 0.000000 -3.564001 -0.900000
v 0.344415 -3.564001 -0.831491
v 0.636396 -3.564001 -0.636396
v 0.831492 -3.564001 -0.344415
v 0.900000 -3.564001 0.000000
v 0.831492 -3.564001 0.344415
v 0.636396 -3.564001 0.636396
v 0.344415 -3.564001 0.831492
v 0.000000 -3.564001 0.900000
v -0.344415 -3.564001 0.831492
v -0.636396 -3.564001 0.636397
v -0.831492 -3.564001 0.344415
v -0.900000 -3.564001 0.000000
v -0.831492 -3.564001 -0.344415
v -0.636396 -3.564001 -0.636396
v -0.344415 -3.564001 -0.831492
v 0.664038 -3.960001 0.664039
v -0.359375 -3.960001 -0.867608
v -0.664038 -3.960001 -0.664039
v -0.867608 -3.960001 -0.359375
v 0.359375 -3.664001 0.867608
v 0.664038 -3.664001 0.664039
v 0.867608 -3.664001 0.359375
v 0.939092 -3.664001 0.000000
v -0.359375 -3.664001 -0.867608
v -0.664038 -3.664001 -0.664039
v -0.867608 -3.664001 -0.359375
v -0.939092 -3.664001 0.000000
v 0.867608 -3.960001 -0.359375
v 0.000000 -3.960001 -0.939092
v 0.867608 -3.664001 -0.359375
v 0.664038 -3.664001 -0.664038
v 0.359375 -3.664001 -0.867608
v 0.000000 -3.664001 -0.939092
v -0.867608 -3.664001 0.359375
v -0.664038 -3.664001 0.664039
v -0.359375 -3.664001 0.867608
v 0.000000 -3.664001 0.939092
v 0.000000 -1.782001 -0.900000
v 0.344415 -1.782001 -0.831491
v 0.636396 -1.782001 -0.636396
v 0.831492 -1.782001 -0.344415
v 0.900000 -1.782001 0.000000
v 0.831492 -1.782001 0.344415
v 0.636396 -1.782001 0.636396
v 0.344415 -1.782001 0.831492
v 0.000000 -1.782001 0.900000
v -0.344415 -1.782001 0.831492
v -0.636396 -1.782001 0.636397
v -0.831492 -1.782001 0.344415
v -0.900000 -1.782001 0.000000
v -0.831492 -1.782001 -0.344415
v -0.636396 -1.782001 -0.636396
v -0.344415 -1.782001 -0.831492
v 0.665193 -1.336501 -0.275532
v 0.509117 -1.336501 -0.509117
v 0.275532 -1.336501 -0.665193
v 0.000000 -1.336501 -0.720000
v -0.665193 -1.336501 0.275532
v -0.509117 -1.336501 0.509117
v -0.275532 -1.336501 0.665193
v 0.000000 -1.336501 0.720000
v -0.275532 -1.336501 -0.665193
v -0.509117 -1.336501 -0.509117
v -0.665193 -1.336501 -0.275532
v -0.720000 -1.336501 0.000000
v 0.275532 -1.336501 0.665193
v 0.509117 -1.336501 0.509117
v 0.665193 -1.336501 0.275532
v 0.720000 -1.336501 0.000000
v 0.247979 -0.000000 -0.598674
v 0.000000 -0.000000 -0.648000
v 0.458205 -0.000000 -0.458205
v 0.598674 -0.000000 0.247979
v 0.648000 -0.000000 0.000000
v 0.458205 -0.000000 0.458205
v -0.247979 -0.000000 -0.598674
v -0.458205 -0.000000 -0.458205
v 0.359375 -3.960001 -0.867608
v 0.664038 -3.960001 -0.664038
v 0.939092 -3.960001 0.000000
v 0.867608 -3.960001 0.359375
v 0.359375 -3.960001 0.867608
v 0.000000 -3.960001 0.939092
v -0.359375 -3.960001 0.867608
v -0.664038 -3.960001 0.664039
v -0.458205 -0.000000 0.458206
v -0.247979 -0.000000 0.598674
v -0.867608 -3.960001 0.359375
v -0.939092 -3.960001 0.000000
v -0.598674 -0.000000 -0.247979
v -0.648000 -0.000000 0.000000
v 0.000000 -3.564001 -0.900000
v 0.344415 -3.564001 -0.831491
v 0.636396 -3.564001 -0.636396
v 0.831492 -3.564001 -0.344415
v 0.900000 -3.564001 0.000000
v 0.831492 -3.564001 0.344415
v 0.636396 -3.564001 0.636396
v 0.344415 -3.564001 0.831492
v 0.000000 -3.564001 0.900000
v -0.344415 -3.564001 0.831492
v -0.636396 -3.564001 0.636397
v -0.831492 -3.564001 0.344415
v -0.900000 -3.564001 0.000000
v -0.831492 -3.564001 -0.344415
v -0.636396 -3.564001 -0.636396
v -0.344415 -3.564001 -0.831492
v 0.359375 -3.664001 0.867608
v 0.000000 -3.664001 0.939092
v 0.867608 -3.664001 0.359375
v 0.664038 -3.664001 0.664039
v 0.939092 -3.664001 0.000000
v 0.867608 -3.664001 -0.359375
v 0.359375 -3.664001 -0.867608
v 0.664038 -3.664001 -0.664038
v 0.000000 -3.664001 -0.939092
v -0.359375 -3.664001 -0.867608
v -0.867608 -3.664001 -0.359375
v -0.664038 -3.664001 -0.664039
v -0.939092 -3.664001 0.000000
v -0.664038 -3.960001 -0.664039
v -0.359375 -3.960001 -0.867608
v 0.000000 -3.960001 -0.939092
v -0.867608 -3.664001 0.359375
v -0.359375 -3.664001 0.867608
v -0.664038 -3.664001 0.664039
v -0.867608 -3.960001 -0.359375
v 0.000000 -1.782001 -0.900000
v 0.344415 -1.782001 -0.831491
v 0.636396 -1.782001 -0.636396
v 0.831492 -1.782001 -0.344415
v 0.900000 -1.782001 0.000000
v 0.831492 -1.782001 0.344415
v 0.636396 -1.782001 0.636396
v 0.344415 -1.782001 0.831492
v 0.000000 -1.782001 0.900000
v -0.344415 -1.782001 0.831492
v -0.636396 -1.782001 0.636397
v -0.831492 -1.782001 0.344415
v -0.900000 -1.782001 0.000000
v -0.831492 -1.782001 -0.344415
v -0.636396 -1.782001 -0.636396
v -0.344415 -1.782001 -0.831492
v 0.665193 -1.336501 -0.275532
v 0.720000 -1.336501 0.000000
v 0.275532 -1.336501 -0.665193
v 0.509117 -1.336501 -0.509117
v 0.000000 -1.336501 -0.720000
v -0.665193 -1.336501 0.275532
v -0.720000 -1.336501 0.000000
v -0.275532 -1.336501 0.665193
v -0.509117 -1.336501 0.509117
v 0.000000 -1.336501 0.720000
v 0.275532 -1.336501 0.665193
v 0.665193 -1.336501 0.275532
v 0.509117 -1.336501 0.509117
v -0.275532 -1.336501 -0.665193
v -0.665193 -1.336501 -0.275532
v -0.509117 -1.336501 -0.509117
v 0.867608 -3.960001 -0.359375
v 0.664038 -3.960001 0.664039
v 0.598674 -0.000000 -0.247979
v 0.247979 -0.000000 0.598674
v 0.000000 -0.000000 0.648000
v -0.598674 -0.000000 0.247979
vn 0.000000 0.999969 0.000000
vn 0.000000 1.000000 0.000000
vn 0.000000 -1.000000 0.000000
vn -0.382122 0.053774 0.922513
vn -0.706076 0.053774 0.706076
vn -0.998535 0.053774 0.000000
vn -0.922513 0.053774 -0.382122
vn -0.356395 0.364086 0.860439
vn -0.658559 0.364086 0.658559
vn -0.658559 0.364086 -0.658559
vn -0.356395 0.364086 -0.860439
vn 0.860439 0.364086 -0.356395
vn 0.931333 0.364086 0.000000
vn 0.000000 0.364086 0.931333
vn -0.860439 0.364086 -0.356395
vn 0.658559 0.364086 -0.658559
vn 0.000000 0.364086 -0.931333
vn 0.658559 0.364086 0.658559
vn 0.356395 0.364086 0.860439
vn -0.931333 0.364086 0.000000
vn -0.923856 0.000000 -0.382672
vn -0.707083 0.000000 -0.707083
vn -0.382672 0.000000 -0.923856
vn 0.000000 0.000000 -1.000000
vn 0.356395 0.364086 -0.860439
vn -0.860439 0.364086 0.356395
vn 0.860439 0.364086 0.356395
vn 0.382672 0.000000 -0.923856
vn 0.707083 0.000000 -0.707083
vn 0.923856 0.000000 -0.382672
vn 1.000000 0.000000 0.000000
vn 0.923856 0.000000 0.382672
vn 0.707083 0.000000 0.707083
vn 0.382672 0.000000 0.923856
vn 0.000000 0.000000 1.000000
vn -0.382672 0.000000 0.923856
vn -0.707083 0.000000 0.707083
vn -0.923856 0.000000 0.382672
vn -1.000000 0.000000 0.000000
vn -0.354808 0.374615 0.856594
vn -0.655599 0.374615 0.655599
vn 0.927152 0.374615 0.000000
vn 0.856594 0.374615 0.354808
vn 0.655599 0.374615 0.655599
vn 0.354808 0.374615 0.856594
vn -0.354808 0.374615 -0.856594
vn 0.000000 0.374615 -0.927152
vn 0.354808 0.374615 -0.856594
vn -0.856594 0.374615 -0.354808
vn -0.655599 0.374615 -0.655599
vn 0.655599 0.374615 -0.655599
vn 0.856594 0.374615 -0.354808
vn -0.856594 0.374615 0.354808
vn -0.927152 0.374615 0.000000
vn 0.000000 0.374615 0.927152
vn 0.000000 0.000000 0.999969
vn 0.000000 0.053774 -0.998535
vn 0.382122 0.053774 -0.922513
vn 0.706076 0.053774 -0.706076
vn 0.922513 0.053774 -0.382122
vn 0.998535 0.053774 0.000000
vn 0.922513 0.053774 0.382122
vn 0.706076 0.053774 0.706076
vn 0.382122 0.053774 0.922513
vn 0.000000 0.053774 0.998535
vn -0.922513 0.053774 0.382122
vn -0.706076 0.053774 -0.706076
vn -0.382122 0.053774 -0.922513
usemtl Material.003
s 1
f 11//1 3//2 2//2
f 11//1 5//2 4//2
f 2//2 1//2 11//1
f 11//1 6//2 5//2
f 11//1 10//2 9//2
f 11//1 1//2 10//2
f 12//3 13//3 14//3
f 12//3 16//3 17//3
f 12//3 18//3 20//3
f 12//3 20//3 21//3
f 12//3 21//3 23//3
f 89//4 22//4 24//5
f 89//4 24//5 88//5
f 12//3 23//3 25//3
f 12//3 25//3 26//3
f 94//6 27//6 28//7
f 94//6 28//7 93//7
f 38//8 39//9 64//9
f 38//8 64//9 65//8
f 43//10 44//11 53//11
f 43//10 53//11 54//10
f 32//12 33//13 52//13
f 32//12 52//13 59//12
f 37//14 38//8 65//8
f 37//14 65//8 66//14
f 42//15 43//10 54//10
f 42//15 54//10 55//15
f 31//16 32//12 59//12
f 31//16 59//12 60//16
f 44//11 29//17 62//17
f 44//11 62//17 53//11
f 35//18 36//19 49//19
f 35//18 49//19 50//18
f 41//20 42//15 55//15
f 41//20 55//15 56//20
f 48//21 147//21 148//22
f 48//21 148//22 47//22
f 46//23 146//23 145//24
f 46//23 145//24 58//24
f 29//17 30//25 61//25
f 29//17 61//25 62//17
f 39//9 40//26 63//26
f 39//9 63//26 64//9
f 33//13 34//27 51//27
f 33//13 51//27 52//13
f 40//26 41//20 56//20
f 40//26 56//20 63//26
f 30//25 31//16 60//16
f 30//25 60//16 61//25
f 47//22 148//22 146//23
f 47//22 146//23 46//23
f 34//27 35//18 50//18
f 34//27 50//18 51//27
f 36//19 37//14 66//14
f 36//19 66//14 49//19
f 121//24 67//24 68//28
f 121//24 68//28 122//28
f 122//28 68//28 69//29
f 122//28 69//29 123//29
f 123//29 69//29 70//30
f 123//29 70//30 124//30
f 124//30 70//30 71//31
f 124//30 71//31 125//31
f 125//31 71//31 72//32
f 125//31 72//32 126//32
f 126//32 72//32 73//33
f 126//32 73//33 127//33
f 127//33 73//33 74//34
f 127//33 74//34 128//34
f 128//34 74//34 75//35
f 128//34 75//35 129//35
f 129//35 75//35 76//36
f 129//35 76//36 130//36
f 130//36 76//36 77//37
f 130//36 77//37 131//37
f 131//37 77//37 78//38
f 131//37 78//38 132//38
f 132//38 78//38 79//39
f 132//38 79//39 133//39
f 133//39 79//39 80//21
f 133//39 80//21 134//21
f 134//21 80//21 81//22
f 134//21 81//22 135//22
f 135//22 81//22 82//23
f 135//22 82//23 136//23
f 136//23 82//23 67//24
f 136//23 67//24 121//24
f 166//40 180//40 181//41
f 166//40 181//41 167//41
f 161//42 98//42 97//43
f 161//42 97//43 162//43
f 163//44 96//44 183//45
f 163//44 183//45 164//45
f 172//46 91//46 86//47
f 172//46 86//47 157//47
f 157//47 86//47 85//48
f 157//47 85//48 158//48
f 170//49 187//49 92//50
f 170//49 92//50 171//50
f 159//51 84//51 173//52
f 159//51 173//52 160//52
f 168//53 87//53 179//54
f 168//53 179//54 169//54
f 165//55 90//55 180//40
f 165//55 180//40 166//40
f 160//52 173//52 98//42
f 160//52 98//42 161//42
f 162//43 97//43 96//44
f 162//43 96//44 163//44
f 171//50 92//50 91//46
f 171//50 91//46 172//46
f 169//54 179//54 187//49
f 169//54 187//49 170//49
f 158//48 85//48 84//51
f 158//48 84//51 159//51
f 167//41 181//41 87//53
f 167//41 87//53 168//53
f 164//45 183//45 90//55
f 164//45 90//55 165//55
f 12//3 152//3 13//3
f 12//3 14//3 189//3
f 12//3 189//3 16//3
f 12//3 17//3 190//3
f 12//3 190//3 18//3
f 12//3 26//3 156//3
f 12//3 156//3 150//3
f 12//3 150//3 151//3
f 12//3 151//3 152//3
f 107//28 143//28 144//29
f 107//28 144//29 108//29
f 113//36 154//36 155//37
f 113//36 155//37 114//37
f 112//56 138//56 154//36
f 112//56 154//36 113//36
f 117//38 153//38 149//39
f 117//38 149//39 118//39
f 57//30 142//30 141//31
f 57//30 141//31 109//31
f 110//32 139//32 140//33
f 110//32 140//33 45//33
f 111//34 137//34 138//56
f 111//34 138//56 112//56
f 58//24 145//24 143//28
f 58//24 143//28 107//28
f 114//37 155//37 153//38
f 114//37 153//38 117//38
f 108//29 144//29 142//30
f 108//29 142//30 57//30
f 109//31 141//31 139//32
f 109//31 139//32 110//32
f 118//39 149//39 147//21
f 118//39 147//21 48//21
f 45//33 140//33 137//34
f 45//33 137//34 111//34
f 11//1 7//2 192//2
f 11//1 116//2 7//2
f 11//1 115//2 116//2
f 11//1 8//2 115//2
f 11//1 120//2 8//2
f 11//1 191//2 3//2
f 11//1 4//2 191//2
f 11//1 192//2 6//2
f 11//1 119//2 120//2
f 11//1 9//2 119//2
f 177//57 100//57 99//58
f 177//57 99//58 175//58
f 175//58 99//58 101//59
f 175//58 101//59 176//59
f 176//59 101//59 15//60
f 176//59 15//60 83//60
f 83//60 15//60 103//61
f 83//60 103//61 174//61
f 174//61 103//61 102//62
f 174//61 102//62 184//62
f 184//62 102//62 104//63
f 184//62 104//63 185//63
f 185//63 104//63 19//64
f 185//63 19//64 95//64
f 95//64 19//64 193//65
f 95//64 193//65 182//65
f 182//65 193//65 22//4
f 182//65 22//4 89//4
f 88//5 24//5 194//66
f 88//5 194//66 178//66
f 178//66 194//66 27//6
f 178//66 27//6 94//6
f 93//7 28//7 106//67
f 93//7 106//67 188//67
f 188//67 106//67 105//68
f 188//67 105//68 186//68
f 186//68 105//68 100//57
f 186//68 100//57 177//57
